<?xml version="1.0" standalone="no"?>
<!DOCTYPE svg PUBLIC "-//W3C//DTD SVG 20010904//EN"
 "http://www.w3.org/TR/2001/REC-SVG-20010904/DTD/svg10.dtd">
<svg version="1.0" xmlns="http://www.w3.org/2000/svg"
 width="221.000000pt" height="167.000000pt" viewBox="0 0 221.000000 167.000000"
 preserveAspectRatio="xMidYMid meet">
<metadata>
Created by potrace 1.10, written by Peter Selinger 2001-2011
</metadata>
<g transform="translate(0.000000,167.000000) scale(0.100000,-0.100000)"
fill="#000000" stroke="none">
<path d="M1035 1616 c-33 -14 -82 -66 -95 -100 -25 -68 -26 -66 29 -66 47 0
51 2 51 23 0 64 103 96 154 48 55 -52 37 -124 -41 -161 -54 -25 -63 -43 -63
-129 l0 -71 -97 -45 c-448 -209 -619 -293 -643 -318 -16 -16 -33 -48 -39 -71
-27 -109 55 -196 186 -196 l43 0 -7 -45 -6 -45 48 0 48 0 -5 45 -6 45 518 0
517 0 -7 -45 -7 -45 49 0 49 0 -6 44 -7 43 64 5 c103 8 150 43 168 123 11 50
-4 103 -39 139 -20 20 -152 88 -384 197 l-352 166 -3 60 c-3 57 -1 61 21 67
61 15 116 94 117 167 0 71 -49 144 -113 168 -38 15 -105 13 -142 -3z m98 -480
c16 -23 15 -23 -23 -23 -38 0 -39 0 -23 23 8 13 19 24 23 24 4 0 15 -11 23
-24z m280 -197 c461 -216 437 -202 437 -251 0 -44 -35 -68 -98 -68 -53 0 -54
1 -48 25 6 24 4 25 -40 25 -44 0 -46 -1 -42 -25 l5 -25 -517 0 -517 0 5 25 c4
24 2 25 -43 25 -45 0 -47 -1 -41 -25 6 -24 5 -25 -47 -25 -40 0 -59 5 -75 20
-22 21 -29 64 -14 88 6 8 703 345 730 351 1 1 139 -63 305 -140z m-109 104 c3
-7 1 -13 -4 -13 -6 0 -10 4 -10 9 0 5 -16 12 -35 15 -20 4 -33 11 -30 16 7 12
73 -10 79 -27z m-711 -451 c16 -15 16 -17 -5 -39 -27 -29 -39 -29 -67 1 l-22
24 28 20 c28 21 35 20 66 -6z m1110 0 c16 -15 16 -17 -5 -39 -27 -29 -39 -29
-67 1 l-22 24 27 21 c27 21 35 20 67 -7z m-409 -20 c2 -4 -13 -8 -35 -8 -21
-1 -39 2 -39 7 0 11 67 12 74 1z"/>
<path d="M1083 974 c-3 -9 0 -20 7 -24 11 -7 10 -17 -5 -55 -21 -55 -49 -88
-73 -83 -20 4 -62 76 -55 95 3 8 -2 13 -16 13 -22 0 -28 -14 -11 -25 17 -10
12 -85 -5 -85 -10 0 -15 11 -15 35 0 25 -4 35 -16 35 -11 0 -14 -5 -9 -17 3
-10 11 -37 18 -60 10 -39 13 -42 54 -48 56 -8 251 -8 307 0 41 6 45 10 51 42
3 19 4 38 1 41 -3 3 -6 -2 -6 -11 0 -10 -7 -17 -15 -17 -17 0 -22 75 -5 85 17
11 11 25 -11 25 -12 0 -19 -5 -16 -12 5 -15 -27 -83 -44 -94 -36 -22 -115 99
-90 138 7 11 9 23 6 28 -10 16 -45 11 -52 -6z m63 -183 c-8 -13 -62 -15 -70
-3 -3 5 4 19 16 31 21 23 21 23 40 3 11 -11 17 -25 14 -31z"/>
<path d="M907 721 c6 -24 57 -31 212 -30 145 0 193 8 197 32 2 16 -4 17 -64
10 -85 -10 -199 -10 -284 0 -62 7 -66 6 -61 -12z"/>
<path d="M485 349 c-57 -18 -92 -59 -104 -123 -23 -123 47 -218 160 -218 95 0
149 63 149 174 0 51 -5 70 -25 101 -40 58 -116 87 -180 66z m116 -36 c41 -34
59 -79 59 -143 0 -125 -107 -193 -191 -123 -41 34 -59 79 -59 143 0 125 107
193 191 123z"/>
<path d="M15 340 c3 -5 14 -10 24 -10 10 0 38 -31 70 -76 l53 -76 -25 -27
c-13 -14 -37 -46 -53 -70 -15 -23 -39 -48 -53 -54 l-26 -11 33 -4 c18 -2 45
-1 60 1 26 4 26 4 5 12 -13 4 -23 9 -23 11 0 2 16 24 35 49 19 25 39 54 45 63
10 15 12 15 28 -8 9 -13 31 -43 48 -66 l32 -41 -27 -10 c-22 -9 -15 -11 44
-12 49 0 65 2 55 9 -8 5 -23 10 -32 10 -10 0 -18 3 -18 8 0 4 -22 38 -49 76
l-49 68 52 73 c29 43 58 74 69 74 9 1 17 6 17 11 0 6 -22 10 -50 10 -27 0 -50
-4 -50 -10 0 -5 9 -10 21 -10 18 0 16 -6 -21 -57 -23 -32 -45 -58 -50 -58 -5
0 -27 25 -50 55 -35 47 -39 56 -23 58 48 10 31 22 -31 22 -42 0 -65 -4 -61
-10z"/>
<path d="M760 340 c0 -5 12 -10 26 -10 20 0 25 -4 20 -16 -3 -9 -6 -75 -6
-149 0 -129 -1 -133 -22 -140 -21 -7 -20 -8 10 -12 17 -2 47 -3 65 0 l32 3
-30 8 -30 8 0 129 c0 71 3 129 6 129 3 0 52 -63 110 -140 57 -77 107 -140 111
-140 5 0 8 72 8 160 0 153 1 160 20 160 11 0 20 5 20 10 0 6 -25 10 -55 10
-30 0 -55 -4 -55 -10 0 -5 10 -10 23 -10 22 0 22 -2 22 -125 0 -69 -3 -124 -7
-123 -3 2 -50 63 -103 136 -91 125 -98 132 -131 132 -19 0 -34 -4 -34 -10z"/>
<path d="M1274 333 c-4 -10 -12 -31 -19 -48 -35 -78 -95 -234 -95 -244 0 -6
-6 -11 -14 -11 -8 0 -18 -4 -21 -10 -4 -6 16 -10 52 -9 51 0 55 2 33 12 -14 6
-26 11 -27 12 -1 1 6 23 16 51 l19 49 64 3 64 3 22 -52 c12 -29 21 -53 19 -54
-1 -1 -13 -6 -27 -12 -22 -10 -17 -12 38 -12 40 -1 61 3 57 9 -3 6 -12 10 -19
10 -8 0 -40 66 -77 160 -35 88 -67 160 -71 160 -5 0 -11 -8 -14 -17z m65 -165
c1 -5 -24 -8 -54 -8 -30 0 -55 2 -55 4 0 2 8 23 19 47 10 24 22 53 26 64 6 17
12 10 35 -40 16 -33 29 -63 29 -67z"/>
<path d="M1490 340 c0 -5 8 -10 18 -10 12 0 40 -29 74 -75 45 -60 53 -76 43
-85 -8 -6 -33 -40 -57 -76 -24 -36 -50 -64 -60 -64 -9 0 -20 -4 -23 -10 -4 -6
15 -10 50 -10 35 0 54 4 50 10 -3 5 -13 10 -21 10 -9 0 3 23 32 63 25 34 49
63 52 64 4 1 26 -27 48 -61 l42 -63 -27 -10 c-22 -9 -16 -11 42 -12 43 -1 66
3 62 9 -3 6 -14 10 -23 10 -21 0 -135 157 -120 166 5 3 30 34 55 68 25 33 55
65 66 70 20 9 19 10 -11 14 -18 2 -45 1 -60 -1 -26 -4 -26 -4 -4 -12 12 -4 22
-9 22 -11 0 -2 -16 -24 -35 -50 -19 -25 -35 -50 -35 -55 0 -24 -28 -3 -60 44
-45 67 -45 67 -21 67 12 0 21 5 21 10 0 6 -27 10 -60 10 -33 0 -60 -4 -60 -10z"/>
<path d="M1855 340 c3 -5 15 -10 26 -10 18 0 19 -8 19 -150 0 -124 -3 -150
-14 -150 -8 0 -18 -4 -21 -10 -4 -6 17 -10 55 -10 38 0 59 4 55 10 -3 5 -15
10 -26 10 -17 0 -19 7 -19 75 l0 75 98 0 97 0 1 -75 c1 -62 -2 -75 -15 -75 -9
0 -23 -5 -31 -10 -10 -7 5 -10 53 -10 43 0 66 4 62 10 -3 6 -15 10 -26 10 -18
0 -19 8 -19 150 0 142 1 150 19 150 11 0 23 5 26 10 4 6 -18 10 -60 10 -42 0
-64 -4 -60 -10 3 -5 17 -10 29 -10 23 0 24 -3 22 -65 l-1 -65 -97 0 -98 0 0
65 c0 58 2 65 19 65 11 0 23 5 26 10 4 6 -18 10 -60 10 -42 0 -64 -4 -60 -10z"/>
</g>
</svg>
